<?xml version="1.0" encoding="utf-8" standalone="no"?>
<!DOCTYPE svg PUBLIC "-//W3C//DTD SVG 1.1//EN"
  "http://www.w3.org/Graphics/SVG/1.1/DTD/svg11.dtd">
<svg height="618.88375pt" version="1.1" viewBox="0 0 882.1275 618.88375" width="882.1275pt" xmlns="http://www.w3.org/2000/svg" xmlns:xlink="http://www.w3.org/1999/xlink">
 <metadata>
  <rdf:RDF xmlns:cc="http://creativecommons.org/ns#" xmlns:dc="http://purl.org/dc/elements/1.1/" xmlns:rdf="http://www.w3.org/1999/02/22-rdf-syntax-ns#">
   <cc:Work>
    <dc:type rdf:resource="http://purl.org/dc/dcmitype/StillImage"/>
    <dc:date>2023-10-23T16:47:33.068028</dc:date>
    <dc:format>image/svg+xml</dc:format>
    <dc:creator>
     <cc:Agent>
      <dc:title>Matplotlib v3.4.3, https://matplotlib.org/</dc:title>
     </cc:Agent>
    </dc:creator>
   </cc:Work>
  </rdf:RDF>
 </metadata>
 <defs>
  <style type="text/css">*{stroke-linecap:butt;stroke-linejoin:round;}</style>
 </defs>
 <g id="figure_1">
  <g id="patch_1">
   <path d="M 0 618.88375 
L 882.1275 618.88375 
L 882.1275 0 
L 0 0 
z
" style="fill:#ffffff;"/>
  </g>
  <g id="axes_1">
   <g id="patch_2">
    <path d="M 93.7275 561.6 
L 874.9275 561.6 
L 874.9275 7.2 
L 93.7275 7.2 
z
" style="fill:#ffffff;"/>
   </g>
   <g id="matplotlib.axis_1">
    <g id="xtick_1">
     <g id="line2d_1">
      <defs>
       <path d="M 0 0 
L 0 -6 
" id="m17074b2d99" style="stroke:#262626;stroke-width:1.25;"/>
      </defs>
      <g>
       <use style="fill:#262626;stroke:#262626;stroke-width:1.25;" x="177.884045" xlink:href="#m17074b2d99" y="561.6"/>
      </g>
     </g>
     <g id="line2d_2">
      <defs>
       <path d="M 0 0 
L 0 6 
" id="m255f00deaa" style="stroke:#262626;stroke-width:1.25;"/>
      </defs>
      <g>
       <use style="fill:#262626;stroke:#262626;stroke-width:1.25;" x="177.884045" xlink:href="#m255f00deaa" y="7.2"/>
      </g>
     </g>
     <g id="text_1">
      <!-- 380 -->
      <g style="fill:#262626;" transform="translate(158.796545 580.296875)scale(0.2 -0.2)">
       <defs>
        <path d="M 2597 2516 
Q 3050 2419 3304 2112 
Q 3559 1806 3559 1356 
Q 3559 666 3084 287 
Q 2609 -91 1734 -91 
Q 1441 -91 1130 -33 
Q 819 25 488 141 
L 488 750 
Q 750 597 1062 519 
Q 1375 441 1716 441 
Q 2309 441 2620 675 
Q 2931 909 2931 1356 
Q 2931 1769 2642 2001 
Q 2353 2234 1838 2234 
L 1294 2234 
L 1294 2753 
L 1863 2753 
Q 2328 2753 2575 2939 
Q 2822 3125 2822 3475 
Q 2822 3834 2567 4026 
Q 2313 4219 1838 4219 
Q 1578 4219 1281 4162 
Q 984 4106 628 3988 
L 628 4550 
Q 988 4650 1302 4700 
Q 1616 4750 1894 4750 
Q 2613 4750 3031 4423 
Q 3450 4097 3450 3541 
Q 3450 3153 3228 2886 
Q 3006 2619 2597 2516 
z
" id="DejaVuSans-33" transform="scale(0.015625)"/>
        <path d="M 2034 2216 
Q 1584 2216 1326 1975 
Q 1069 1734 1069 1313 
Q 1069 891 1326 650 
Q 1584 409 2034 409 
Q 2484 409 2743 651 
Q 3003 894 3003 1313 
Q 3003 1734 2745 1975 
Q 2488 2216 2034 2216 
z
M 1403 2484 
Q 997 2584 770 2862 
Q 544 3141 544 3541 
Q 544 4100 942 4425 
Q 1341 4750 2034 4750 
Q 2731 4750 3128 4425 
Q 3525 4100 3525 3541 
Q 3525 3141 3298 2862 
Q 3072 2584 2669 2484 
Q 3125 2378 3379 2068 
Q 3634 1759 3634 1313 
Q 3634 634 3220 271 
Q 2806 -91 2034 -91 
Q 1263 -91 848 271 
Q 434 634 434 1313 
Q 434 1759 690 2068 
Q 947 2378 1403 2484 
z
M 1172 3481 
Q 1172 3119 1398 2916 
Q 1625 2713 2034 2713 
Q 2441 2713 2670 2916 
Q 2900 3119 2900 3481 
Q 2900 3844 2670 4047 
Q 2441 4250 2034 4250 
Q 1625 4250 1398 4047 
Q 1172 3844 1172 3481 
z
" id="DejaVuSans-38" transform="scale(0.015625)"/>
        <path d="M 2034 4250 
Q 1547 4250 1301 3770 
Q 1056 3291 1056 2328 
Q 1056 1369 1301 889 
Q 1547 409 2034 409 
Q 2525 409 2770 889 
Q 3016 1369 3016 2328 
Q 3016 3291 2770 3770 
Q 2525 4250 2034 4250 
z
M 2034 4750 
Q 2819 4750 3233 4129 
Q 3647 3509 3647 2328 
Q 3647 1150 3233 529 
Q 2819 -91 2034 -91 
Q 1250 -91 836 529 
Q 422 1150 422 2328 
Q 422 3509 836 4129 
Q 1250 4750 2034 4750 
z
" id="DejaVuSans-30" transform="scale(0.015625)"/>
       </defs>
       <use xlink:href="#DejaVuSans-33"/>
       <use x="63.623047" xlink:href="#DejaVuSans-38"/>
       <use x="127.246094" xlink:href="#DejaVuSans-30"/>
      </g>
     </g>
    </g>
    <g id="xtick_2">
     <g id="line2d_3">
      <g>
       <use style="fill:#262626;stroke:#262626;stroke-width:1.25;" x="319.920409" xlink:href="#m17074b2d99" y="561.6"/>
      </g>
     </g>
     <g id="line2d_4">
      <g>
       <use style="fill:#262626;stroke:#262626;stroke-width:1.25;" x="319.920409" xlink:href="#m255f00deaa" y="7.2"/>
      </g>
     </g>
     <g id="text_2">
      <!-- 400 -->
      <g style="fill:#262626;" transform="translate(300.832909 580.296875)scale(0.2 -0.2)">
       <defs>
        <path d="M 2419 4116 
L 825 1625 
L 2419 1625 
L 2419 4116 
z
M 2253 4666 
L 3047 4666 
L 3047 1625 
L 3713 1625 
L 3713 1100 
L 3047 1100 
L 3047 0 
L 2419 0 
L 2419 1100 
L 313 1100 
L 313 1709 
L 2253 4666 
z
" id="DejaVuSans-34" transform="scale(0.015625)"/>
       </defs>
       <use xlink:href="#DejaVuSans-34"/>
       <use x="63.623047" xlink:href="#DejaVuSans-30"/>
       <use x="127.246094" xlink:href="#DejaVuSans-30"/>
      </g>
     </g>
    </g>
    <g id="xtick_3">
     <g id="line2d_5">
      <g>
       <use style="fill:#262626;stroke:#262626;stroke-width:1.25;" x="461.956773" xlink:href="#m17074b2d99" y="561.6"/>
      </g>
     </g>
     <g id="line2d_6">
      <g>
       <use style="fill:#262626;stroke:#262626;stroke-width:1.25;" x="461.956773" xlink:href="#m255f00deaa" y="7.2"/>
      </g>
     </g>
     <g id="text_3">
      <!-- 420 -->
      <g style="fill:#262626;" transform="translate(442.869273 580.296875)scale(0.2 -0.2)">
       <defs>
        <path d="M 1228 531 
L 3431 531 
L 3431 0 
L 469 0 
L 469 531 
Q 828 903 1448 1529 
Q 2069 2156 2228 2338 
Q 2531 2678 2651 2914 
Q 2772 3150 2772 3378 
Q 2772 3750 2511 3984 
Q 2250 4219 1831 4219 
Q 1534 4219 1204 4116 
Q 875 4013 500 3803 
L 500 4441 
Q 881 4594 1212 4672 
Q 1544 4750 1819 4750 
Q 2544 4750 2975 4387 
Q 3406 4025 3406 3419 
Q 3406 3131 3298 2873 
Q 3191 2616 2906 2266 
Q 2828 2175 2409 1742 
Q 1991 1309 1228 531 
z
" id="DejaVuSans-32" transform="scale(0.015625)"/>
       </defs>
       <use xlink:href="#DejaVuSans-34"/>
       <use x="63.623047" xlink:href="#DejaVuSans-32"/>
       <use x="127.246094" xlink:href="#DejaVuSans-30"/>
      </g>
     </g>
    </g>
    <g id="xtick_4">
     <g id="line2d_7">
      <g>
       <use style="fill:#262626;stroke:#262626;stroke-width:1.25;" x="603.993136" xlink:href="#m17074b2d99" y="561.6"/>
      </g>
     </g>
     <g id="line2d_8">
      <g>
       <use style="fill:#262626;stroke:#262626;stroke-width:1.25;" x="603.993136" xlink:href="#m255f00deaa" y="7.2"/>
      </g>
     </g>
     <g id="text_4">
      <!-- 440 -->
      <g style="fill:#262626;" transform="translate(584.905636 580.296875)scale(0.2 -0.2)">
       <use xlink:href="#DejaVuSans-34"/>
       <use x="63.623047" xlink:href="#DejaVuSans-34"/>
       <use x="127.246094" xlink:href="#DejaVuSans-30"/>
      </g>
     </g>
    </g>
    <g id="xtick_5">
     <g id="line2d_9">
      <g>
       <use style="fill:#262626;stroke:#262626;stroke-width:1.25;" x="746.0295" xlink:href="#m17074b2d99" y="561.6"/>
      </g>
     </g>
     <g id="line2d_10">
      <g>
       <use style="fill:#262626;stroke:#262626;stroke-width:1.25;" x="746.0295" xlink:href="#m255f00deaa" y="7.2"/>
      </g>
     </g>
     <g id="text_5">
      <!-- 460 -->
      <g style="fill:#262626;" transform="translate(726.942 580.296875)scale(0.2 -0.2)">
       <defs>
        <path d="M 2113 2584 
Q 1688 2584 1439 2293 
Q 1191 2003 1191 1497 
Q 1191 994 1439 701 
Q 1688 409 2113 409 
Q 2538 409 2786 701 
Q 3034 994 3034 1497 
Q 3034 2003 2786 2293 
Q 2538 2584 2113 2584 
z
M 3366 4563 
L 3366 3988 
Q 3128 4100 2886 4159 
Q 2644 4219 2406 4219 
Q 1781 4219 1451 3797 
Q 1122 3375 1075 2522 
Q 1259 2794 1537 2939 
Q 1816 3084 2150 3084 
Q 2853 3084 3261 2657 
Q 3669 2231 3669 1497 
Q 3669 778 3244 343 
Q 2819 -91 2113 -91 
Q 1303 -91 875 529 
Q 447 1150 447 2328 
Q 447 3434 972 4092 
Q 1497 4750 2381 4750 
Q 2619 4750 2861 4703 
Q 3103 4656 3366 4563 
z
" id="DejaVuSans-36" transform="scale(0.015625)"/>
       </defs>
       <use xlink:href="#DejaVuSans-34"/>
       <use x="63.623047" xlink:href="#DejaVuSans-36"/>
       <use x="127.246094" xlink:href="#DejaVuSans-30"/>
      </g>
     </g>
    </g>
    <g id="text_6">
     <!-- Temperature [K] -->
     <g style="fill:#262626;" transform="translate(387.27375 606.6925)scale(0.24 -0.24)">
      <defs>
       <path d="M -19 4666 
L 3928 4666 
L 3928 4134 
L 2272 4134 
L 2272 0 
L 1638 0 
L 1638 4134 
L -19 4134 
L -19 4666 
z
" id="DejaVuSans-54" transform="scale(0.015625)"/>
       <path d="M 3597 1894 
L 3597 1613 
L 953 1613 
Q 991 1019 1311 708 
Q 1631 397 2203 397 
Q 2534 397 2845 478 
Q 3156 559 3463 722 
L 3463 178 
Q 3153 47 2828 -22 
Q 2503 -91 2169 -91 
Q 1331 -91 842 396 
Q 353 884 353 1716 
Q 353 2575 817 3079 
Q 1281 3584 2069 3584 
Q 2775 3584 3186 3129 
Q 3597 2675 3597 1894 
z
M 3022 2063 
Q 3016 2534 2758 2815 
Q 2500 3097 2075 3097 
Q 1594 3097 1305 2825 
Q 1016 2553 972 2059 
L 3022 2063 
z
" id="DejaVuSans-65" transform="scale(0.015625)"/>
       <path d="M 3328 2828 
Q 3544 3216 3844 3400 
Q 4144 3584 4550 3584 
Q 5097 3584 5394 3201 
Q 5691 2819 5691 2113 
L 5691 0 
L 5113 0 
L 5113 2094 
Q 5113 2597 4934 2840 
Q 4756 3084 4391 3084 
Q 3944 3084 3684 2787 
Q 3425 2491 3425 1978 
L 3425 0 
L 2847 0 
L 2847 2094 
Q 2847 2600 2669 2842 
Q 2491 3084 2119 3084 
Q 1678 3084 1418 2786 
Q 1159 2488 1159 1978 
L 1159 0 
L 581 0 
L 581 3500 
L 1159 3500 
L 1159 2956 
Q 1356 3278 1631 3431 
Q 1906 3584 2284 3584 
Q 2666 3584 2933 3390 
Q 3200 3197 3328 2828 
z
" id="DejaVuSans-6d" transform="scale(0.015625)"/>
       <path d="M 1159 525 
L 1159 -1331 
L 581 -1331 
L 581 3500 
L 1159 3500 
L 1159 2969 
Q 1341 3281 1617 3432 
Q 1894 3584 2278 3584 
Q 2916 3584 3314 3078 
Q 3713 2572 3713 1747 
Q 3713 922 3314 415 
Q 2916 -91 2278 -91 
Q 1894 -91 1617 61 
Q 1341 213 1159 525 
z
M 3116 1747 
Q 3116 2381 2855 2742 
Q 2594 3103 2138 3103 
Q 1681 3103 1420 2742 
Q 1159 2381 1159 1747 
Q 1159 1113 1420 752 
Q 1681 391 2138 391 
Q 2594 391 2855 752 
Q 3116 1113 3116 1747 
z
" id="DejaVuSans-70" transform="scale(0.015625)"/>
       <path d="M 2631 2963 
Q 2534 3019 2420 3045 
Q 2306 3072 2169 3072 
Q 1681 3072 1420 2755 
Q 1159 2438 1159 1844 
L 1159 0 
L 581 0 
L 581 3500 
L 1159 3500 
L 1159 2956 
Q 1341 3275 1631 3429 
Q 1922 3584 2338 3584 
Q 2397 3584 2469 3576 
Q 2541 3569 2628 3553 
L 2631 2963 
z
" id="DejaVuSans-72" transform="scale(0.015625)"/>
       <path d="M 2194 1759 
Q 1497 1759 1228 1600 
Q 959 1441 959 1056 
Q 959 750 1161 570 
Q 1363 391 1709 391 
Q 2188 391 2477 730 
Q 2766 1069 2766 1631 
L 2766 1759 
L 2194 1759 
z
M 3341 1997 
L 3341 0 
L 2766 0 
L 2766 531 
Q 2569 213 2275 61 
Q 1981 -91 1556 -91 
Q 1019 -91 701 211 
Q 384 513 384 1019 
Q 384 1609 779 1909 
Q 1175 2209 1959 2209 
L 2766 2209 
L 2766 2266 
Q 2766 2663 2505 2880 
Q 2244 3097 1772 3097 
Q 1472 3097 1187 3025 
Q 903 2953 641 2809 
L 641 3341 
Q 956 3463 1253 3523 
Q 1550 3584 1831 3584 
Q 2591 3584 2966 3190 
Q 3341 2797 3341 1997 
z
" id="DejaVuSans-61" transform="scale(0.015625)"/>
       <path d="M 1172 4494 
L 1172 3500 
L 2356 3500 
L 2356 3053 
L 1172 3053 
L 1172 1153 
Q 1172 725 1289 603 
Q 1406 481 1766 481 
L 2356 481 
L 2356 0 
L 1766 0 
Q 1100 0 847 248 
Q 594 497 594 1153 
L 594 3053 
L 172 3053 
L 172 3500 
L 594 3500 
L 594 4494 
L 1172 4494 
z
" id="DejaVuSans-74" transform="scale(0.015625)"/>
       <path d="M 544 1381 
L 544 3500 
L 1119 3500 
L 1119 1403 
Q 1119 906 1312 657 
Q 1506 409 1894 409 
Q 2359 409 2629 706 
Q 2900 1003 2900 1516 
L 2900 3500 
L 3475 3500 
L 3475 0 
L 2900 0 
L 2900 538 
Q 2691 219 2414 64 
Q 2138 -91 1772 -91 
Q 1169 -91 856 284 
Q 544 659 544 1381 
z
M 1991 3584 
L 1991 3584 
z
" id="DejaVuSans-75" transform="scale(0.015625)"/>
       <path id="DejaVuSans-20" transform="scale(0.015625)"/>
       <path d="M 550 4863 
L 1875 4863 
L 1875 4416 
L 1125 4416 
L 1125 -397 
L 1875 -397 
L 1875 -844 
L 550 -844 
L 550 4863 
z
" id="DejaVuSans-5b" transform="scale(0.015625)"/>
       <path d="M 628 4666 
L 1259 4666 
L 1259 2694 
L 3353 4666 
L 4166 4666 
L 1850 2491 
L 4331 0 
L 3500 0 
L 1259 2247 
L 1259 0 
L 628 0 
L 628 4666 
z
" id="DejaVuSans-4b" transform="scale(0.015625)"/>
       <path d="M 1947 4863 
L 1947 -844 
L 622 -844 
L 622 -397 
L 1369 -397 
L 1369 4416 
L 622 4416 
L 622 4863 
L 1947 4863 
z
" id="DejaVuSans-5d" transform="scale(0.015625)"/>
      </defs>
      <use xlink:href="#DejaVuSans-54"/>
      <use x="44.083984" xlink:href="#DejaVuSans-65"/>
      <use x="105.607422" xlink:href="#DejaVuSans-6d"/>
      <use x="203.019531" xlink:href="#DejaVuSans-70"/>
      <use x="266.496094" xlink:href="#DejaVuSans-65"/>
      <use x="328.019531" xlink:href="#DejaVuSans-72"/>
      <use x="369.132812" xlink:href="#DejaVuSans-61"/>
      <use x="430.412109" xlink:href="#DejaVuSans-74"/>
      <use x="469.621094" xlink:href="#DejaVuSans-75"/>
      <use x="533" xlink:href="#DejaVuSans-72"/>
      <use x="571.863281" xlink:href="#DejaVuSans-65"/>
      <use x="633.386719" xlink:href="#DejaVuSans-20"/>
      <use x="665.173828" xlink:href="#DejaVuSans-5b"/>
      <use x="704.1875" xlink:href="#DejaVuSans-4b"/>
      <use x="769.763672" xlink:href="#DejaVuSans-5d"/>
     </g>
    </g>
   </g>
   <g id="matplotlib.axis_2">
    <g id="ytick_1">
     <g id="line2d_11">
      <defs>
       <path d="M 0 0 
L 6 0 
" id="mc456dc529c" style="stroke:#262626;stroke-width:1.25;"/>
      </defs>
      <g>
       <use style="fill:#262626;stroke:#262626;stroke-width:1.25;" x="93.7275" xlink:href="#mc456dc529c" y="525.126388"/>
      </g>
     </g>
     <g id="line2d_12">
      <defs>
       <path d="M 0 0 
L -6 0 
" id="m1f0ea5b759" style="stroke:#262626;stroke-width:1.25;"/>
      </defs>
      <g>
       <use style="fill:#262626;stroke:#262626;stroke-width:1.25;" x="874.9275" xlink:href="#m1f0ea5b759" y="525.126388"/>
      </g>
     </g>
     <g id="text_7">
      <!-- $\mathdefault{10^{-10}}$ -->
      <g style="fill:#262626;" transform="translate(34.4275 532.724825)scale(0.2 -0.2)">
       <defs>
        <path d="M 794 531 
L 1825 531 
L 1825 4091 
L 703 3866 
L 703 4441 
L 1819 4666 
L 2450 4666 
L 2450 531 
L 3481 531 
L 3481 0 
L 794 0 
L 794 531 
z
" id="DejaVuSans-31" transform="scale(0.015625)"/>
        <path d="M 678 2272 
L 4684 2272 
L 4684 1741 
L 678 1741 
L 678 2272 
z
" id="DejaVuSans-2212" transform="scale(0.015625)"/>
       </defs>
       <use transform="translate(0 0.765625)" xlink:href="#DejaVuSans-31"/>
       <use transform="translate(63.623047 0.765625)" xlink:href="#DejaVuSans-30"/>
       <use transform="translate(128.203125 39.046875)scale(0.7)" xlink:href="#DejaVuSans-2212"/>
       <use transform="translate(186.855469 39.046875)scale(0.7)" xlink:href="#DejaVuSans-31"/>
       <use transform="translate(231.391602 39.046875)scale(0.7)" xlink:href="#DejaVuSans-30"/>
      </g>
     </g>
    </g>
    <g id="ytick_2">
     <g id="line2d_13">
      <g>
       <use style="fill:#262626;stroke:#262626;stroke-width:1.25;" x="93.7275" xlink:href="#mc456dc529c" y="401.937682"/>
      </g>
     </g>
     <g id="line2d_14">
      <g>
       <use style="fill:#262626;stroke:#262626;stroke-width:1.25;" x="874.9275" xlink:href="#m1f0ea5b759" y="401.937682"/>
      </g>
     </g>
     <g id="text_8">
      <!-- $\mathdefault{10^{-9}}$ -->
      <g style="fill:#262626;" transform="translate(43.2275 409.536119)scale(0.2 -0.2)">
       <defs>
        <path d="M 703 97 
L 703 672 
Q 941 559 1184 500 
Q 1428 441 1663 441 
Q 2288 441 2617 861 
Q 2947 1281 2994 2138 
Q 2813 1869 2534 1725 
Q 2256 1581 1919 1581 
Q 1219 1581 811 2004 
Q 403 2428 403 3163 
Q 403 3881 828 4315 
Q 1253 4750 1959 4750 
Q 2769 4750 3195 4129 
Q 3622 3509 3622 2328 
Q 3622 1225 3098 567 
Q 2575 -91 1691 -91 
Q 1453 -91 1209 -44 
Q 966 3 703 97 
z
M 1959 2075 
Q 2384 2075 2632 2365 
Q 2881 2656 2881 3163 
Q 2881 3666 2632 3958 
Q 2384 4250 1959 4250 
Q 1534 4250 1286 3958 
Q 1038 3666 1038 3163 
Q 1038 2656 1286 2365 
Q 1534 2075 1959 2075 
z
" id="DejaVuSans-39" transform="scale(0.015625)"/>
       </defs>
       <use transform="translate(0 0.765625)" xlink:href="#DejaVuSans-31"/>
       <use transform="translate(63.623047 0.765625)" xlink:href="#DejaVuSans-30"/>
       <use transform="translate(128.203125 39.046875)scale(0.7)" xlink:href="#DejaVuSans-2212"/>
       <use transform="translate(186.855469 39.046875)scale(0.7)" xlink:href="#DejaVuSans-39"/>
      </g>
     </g>
    </g>
    <g id="ytick_3">
     <g id="line2d_15">
      <g>
       <use style="fill:#262626;stroke:#262626;stroke-width:1.25;" x="93.7275" xlink:href="#mc456dc529c" y="278.748975"/>
      </g>
     </g>
     <g id="line2d_16">
      <g>
       <use style="fill:#262626;stroke:#262626;stroke-width:1.25;" x="874.9275" xlink:href="#m1f0ea5b759" y="278.748975"/>
      </g>
     </g>
     <g id="text_9">
      <!-- $\mathdefault{10^{-8}}$ -->
      <g style="fill:#262626;" transform="translate(43.2275 286.347413)scale(0.2 -0.2)">
       <use transform="translate(0 0.765625)" xlink:href="#DejaVuSans-31"/>
       <use transform="translate(63.623047 0.765625)" xlink:href="#DejaVuSans-30"/>
       <use transform="translate(128.203125 39.046875)scale(0.7)" xlink:href="#DejaVuSans-2212"/>
       <use transform="translate(186.855469 39.046875)scale(0.7)" xlink:href="#DejaVuSans-38"/>
      </g>
     </g>
    </g>
    <g id="ytick_4">
     <g id="line2d_17">
      <g>
       <use style="fill:#262626;stroke:#262626;stroke-width:1.25;" x="93.7275" xlink:href="#mc456dc529c" y="155.560269"/>
      </g>
     </g>
     <g id="line2d_18">
      <g>
       <use style="fill:#262626;stroke:#262626;stroke-width:1.25;" x="874.9275" xlink:href="#m1f0ea5b759" y="155.560269"/>
      </g>
     </g>
     <g id="text_10">
      <!-- $\mathdefault{10^{-7}}$ -->
      <g style="fill:#262626;" transform="translate(43.2275 163.158706)scale(0.2 -0.2)">
       <defs>
        <path d="M 525 4666 
L 3525 4666 
L 3525 4397 
L 1831 0 
L 1172 0 
L 2766 4134 
L 525 4134 
L 525 4666 
z
" id="DejaVuSans-37" transform="scale(0.015625)"/>
       </defs>
       <use transform="translate(0 0.684375)" xlink:href="#DejaVuSans-31"/>
       <use transform="translate(63.623047 0.684375)" xlink:href="#DejaVuSans-30"/>
       <use transform="translate(128.203125 38.965625)scale(0.7)" xlink:href="#DejaVuSans-2212"/>
       <use transform="translate(186.855469 38.965625)scale(0.7)" xlink:href="#DejaVuSans-37"/>
      </g>
     </g>
    </g>
    <g id="ytick_5">
     <g id="line2d_19">
      <g>
       <use style="fill:#262626;stroke:#262626;stroke-width:1.25;" x="93.7275" xlink:href="#mc456dc529c" y="32.371562"/>
      </g>
     </g>
     <g id="line2d_20">
      <g>
       <use style="fill:#262626;stroke:#262626;stroke-width:1.25;" x="874.9275" xlink:href="#m1f0ea5b759" y="32.371562"/>
      </g>
     </g>
     <g id="text_11">
      <!-- $\mathdefault{10^{-6}}$ -->
      <g style="fill:#262626;" transform="translate(43.2275 39.97)scale(0.2 -0.2)">
       <use transform="translate(0 0.765625)" xlink:href="#DejaVuSans-31"/>
       <use transform="translate(63.623047 0.765625)" xlink:href="#DejaVuSans-30"/>
       <use transform="translate(128.203125 39.046875)scale(0.7)" xlink:href="#DejaVuSans-2212"/>
       <use transform="translate(186.855469 39.046875)scale(0.7)" xlink:href="#DejaVuSans-36"/>
      </g>
     </g>
    </g>
    <g id="ytick_6">
     <g id="line2d_21">
      <defs>
       <path d="M 0 0 
L 4 0 
" id="m95f3fece49" style="stroke:#262626;"/>
      </defs>
      <g>
       <use style="fill:#262626;stroke:#262626;" x="93.7275" xlink:href="#m95f3fece49" y="552.455648"/>
      </g>
     </g>
     <g id="line2d_22">
      <defs>
       <path d="M 0 0 
L -4 0 
" id="m20c059ef90" style="stroke:#262626;"/>
      </defs>
      <g>
       <use style="fill:#262626;stroke:#262626;" x="874.9275" xlink:href="#m20c059ef90" y="552.455648"/>
      </g>
     </g>
    </g>
    <g id="ytick_7">
     <g id="line2d_23">
      <g>
       <use style="fill:#262626;stroke:#262626;" x="93.7275" xlink:href="#m95f3fece49" y="544.20856"/>
      </g>
     </g>
     <g id="line2d_24">
      <g>
       <use style="fill:#262626;stroke:#262626;" x="874.9275" xlink:href="#m20c059ef90" y="544.20856"/>
      </g>
     </g>
    </g>
    <g id="ytick_8">
     <g id="line2d_25">
      <g>
       <use style="fill:#262626;stroke:#262626;" x="93.7275" xlink:href="#m95f3fece49" y="537.064607"/>
      </g>
     </g>
     <g id="line2d_26">
      <g>
       <use style="fill:#262626;stroke:#262626;" x="874.9275" xlink:href="#m20c059ef90" y="537.064607"/>
      </g>
     </g>
    </g>
    <g id="ytick_9">
     <g id="line2d_27">
      <g>
       <use style="fill:#262626;stroke:#262626;" x="93.7275" xlink:href="#m95f3fece49" y="530.763194"/>
      </g>
     </g>
     <g id="line2d_28">
      <g>
       <use style="fill:#262626;stroke:#262626;" x="874.9275" xlink:href="#m20c059ef90" y="530.763194"/>
      </g>
     </g>
    </g>
    <g id="ytick_10">
     <g id="line2d_29">
      <g>
       <use style="fill:#262626;stroke:#262626;" x="93.7275" xlink:href="#m95f3fece49" y="488.042892"/>
      </g>
     </g>
     <g id="line2d_30">
      <g>
       <use style="fill:#262626;stroke:#262626;" x="874.9275" xlink:href="#m20c059ef90" y="488.042892"/>
      </g>
     </g>
    </g>
    <g id="ytick_11">
     <g id="line2d_31">
      <g>
       <use style="fill:#262626;stroke:#262626;" x="93.7275" xlink:href="#m95f3fece49" y="466.350438"/>
      </g>
     </g>
     <g id="line2d_32">
      <g>
       <use style="fill:#262626;stroke:#262626;" x="874.9275" xlink:href="#m20c059ef90" y="466.350438"/>
      </g>
     </g>
    </g>
    <g id="ytick_12">
     <g id="line2d_33">
      <g>
       <use style="fill:#262626;stroke:#262626;" x="93.7275" xlink:href="#m95f3fece49" y="450.959396"/>
      </g>
     </g>
     <g id="line2d_34">
      <g>
       <use style="fill:#262626;stroke:#262626;" x="874.9275" xlink:href="#m20c059ef90" y="450.959396"/>
      </g>
     </g>
    </g>
    <g id="ytick_13">
     <g id="line2d_35">
      <g>
       <use style="fill:#262626;stroke:#262626;" x="93.7275" xlink:href="#m95f3fece49" y="439.021177"/>
      </g>
     </g>
     <g id="line2d_36">
      <g>
       <use style="fill:#262626;stroke:#262626;" x="874.9275" xlink:href="#m20c059ef90" y="439.021177"/>
      </g>
     </g>
    </g>
    <g id="ytick_14">
     <g id="line2d_37">
      <g>
       <use style="fill:#262626;stroke:#262626;" x="93.7275" xlink:href="#m95f3fece49" y="429.266942"/>
      </g>
     </g>
     <g id="line2d_38">
      <g>
       <use style="fill:#262626;stroke:#262626;" x="874.9275" xlink:href="#m20c059ef90" y="429.266942"/>
      </g>
     </g>
    </g>
    <g id="ytick_15">
     <g id="line2d_39">
      <g>
       <use style="fill:#262626;stroke:#262626;" x="93.7275" xlink:href="#m95f3fece49" y="421.019854"/>
      </g>
     </g>
     <g id="line2d_40">
      <g>
       <use style="fill:#262626;stroke:#262626;" x="874.9275" xlink:href="#m20c059ef90" y="421.019854"/>
      </g>
     </g>
    </g>
    <g id="ytick_16">
     <g id="line2d_41">
      <g>
       <use style="fill:#262626;stroke:#262626;" x="93.7275" xlink:href="#m95f3fece49" y="413.875901"/>
      </g>
     </g>
     <g id="line2d_42">
      <g>
       <use style="fill:#262626;stroke:#262626;" x="874.9275" xlink:href="#m20c059ef90" y="413.875901"/>
      </g>
     </g>
    </g>
    <g id="ytick_17">
     <g id="line2d_43">
      <g>
       <use style="fill:#262626;stroke:#262626;" x="93.7275" xlink:href="#m95f3fece49" y="407.574488"/>
      </g>
     </g>
     <g id="line2d_44">
      <g>
       <use style="fill:#262626;stroke:#262626;" x="874.9275" xlink:href="#m20c059ef90" y="407.574488"/>
      </g>
     </g>
    </g>
    <g id="ytick_18">
     <g id="line2d_45">
      <g>
       <use style="fill:#262626;stroke:#262626;" x="93.7275" xlink:href="#m95f3fece49" y="364.854186"/>
      </g>
     </g>
     <g id="line2d_46">
      <g>
       <use style="fill:#262626;stroke:#262626;" x="874.9275" xlink:href="#m20c059ef90" y="364.854186"/>
      </g>
     </g>
    </g>
    <g id="ytick_19">
     <g id="line2d_47">
      <g>
       <use style="fill:#262626;stroke:#262626;" x="93.7275" xlink:href="#m95f3fece49" y="343.161731"/>
      </g>
     </g>
     <g id="line2d_48">
      <g>
       <use style="fill:#262626;stroke:#262626;" x="874.9275" xlink:href="#m20c059ef90" y="343.161731"/>
      </g>
     </g>
    </g>
    <g id="ytick_20">
     <g id="line2d_49">
      <g>
       <use style="fill:#262626;stroke:#262626;" x="93.7275" xlink:href="#m95f3fece49" y="327.77069"/>
      </g>
     </g>
     <g id="line2d_50">
      <g>
       <use style="fill:#262626;stroke:#262626;" x="874.9275" xlink:href="#m20c059ef90" y="327.77069"/>
      </g>
     </g>
    </g>
    <g id="ytick_21">
     <g id="line2d_51">
      <g>
       <use style="fill:#262626;stroke:#262626;" x="93.7275" xlink:href="#m95f3fece49" y="315.832471"/>
      </g>
     </g>
     <g id="line2d_52">
      <g>
       <use style="fill:#262626;stroke:#262626;" x="874.9275" xlink:href="#m20c059ef90" y="315.832471"/>
      </g>
     </g>
    </g>
    <g id="ytick_22">
     <g id="line2d_53">
      <g>
       <use style="fill:#262626;stroke:#262626;" x="93.7275" xlink:href="#m95f3fece49" y="306.078236"/>
      </g>
     </g>
     <g id="line2d_54">
      <g>
       <use style="fill:#262626;stroke:#262626;" x="874.9275" xlink:href="#m20c059ef90" y="306.078236"/>
      </g>
     </g>
    </g>
    <g id="ytick_23">
     <g id="line2d_55">
      <g>
       <use style="fill:#262626;stroke:#262626;" x="93.7275" xlink:href="#m95f3fece49" y="297.831147"/>
      </g>
     </g>
     <g id="line2d_56">
      <g>
       <use style="fill:#262626;stroke:#262626;" x="874.9275" xlink:href="#m20c059ef90" y="297.831147"/>
      </g>
     </g>
    </g>
    <g id="ytick_24">
     <g id="line2d_57">
      <g>
       <use style="fill:#262626;stroke:#262626;" x="93.7275" xlink:href="#m95f3fece49" y="290.687194"/>
      </g>
     </g>
     <g id="line2d_58">
      <g>
       <use style="fill:#262626;stroke:#262626;" x="874.9275" xlink:href="#m20c059ef90" y="290.687194"/>
      </g>
     </g>
    </g>
    <g id="ytick_25">
     <g id="line2d_59">
      <g>
       <use style="fill:#262626;stroke:#262626;" x="93.7275" xlink:href="#m95f3fece49" y="284.385781"/>
      </g>
     </g>
     <g id="line2d_60">
      <g>
       <use style="fill:#262626;stroke:#262626;" x="874.9275" xlink:href="#m20c059ef90" y="284.385781"/>
      </g>
     </g>
    </g>
    <g id="ytick_26">
     <g id="line2d_61">
      <g>
       <use style="fill:#262626;stroke:#262626;" x="93.7275" xlink:href="#m95f3fece49" y="241.665479"/>
      </g>
     </g>
     <g id="line2d_62">
      <g>
       <use style="fill:#262626;stroke:#262626;" x="874.9275" xlink:href="#m20c059ef90" y="241.665479"/>
      </g>
     </g>
    </g>
    <g id="ytick_27">
     <g id="line2d_63">
      <g>
       <use style="fill:#262626;stroke:#262626;" x="93.7275" xlink:href="#m95f3fece49" y="219.973025"/>
      </g>
     </g>
     <g id="line2d_64">
      <g>
       <use style="fill:#262626;stroke:#262626;" x="874.9275" xlink:href="#m20c059ef90" y="219.973025"/>
      </g>
     </g>
    </g>
    <g id="ytick_28">
     <g id="line2d_65">
      <g>
       <use style="fill:#262626;stroke:#262626;" x="93.7275" xlink:href="#m95f3fece49" y="204.581984"/>
      </g>
     </g>
     <g id="line2d_66">
      <g>
       <use style="fill:#262626;stroke:#262626;" x="874.9275" xlink:href="#m20c059ef90" y="204.581984"/>
      </g>
     </g>
    </g>
    <g id="ytick_29">
     <g id="line2d_67">
      <g>
       <use style="fill:#262626;stroke:#262626;" x="93.7275" xlink:href="#m95f3fece49" y="192.643765"/>
      </g>
     </g>
     <g id="line2d_68">
      <g>
       <use style="fill:#262626;stroke:#262626;" x="874.9275" xlink:href="#m20c059ef90" y="192.643765"/>
      </g>
     </g>
    </g>
    <g id="ytick_30">
     <g id="line2d_69">
      <g>
       <use style="fill:#262626;stroke:#262626;" x="93.7275" xlink:href="#m95f3fece49" y="182.889529"/>
      </g>
     </g>
     <g id="line2d_70">
      <g>
       <use style="fill:#262626;stroke:#262626;" x="874.9275" xlink:href="#m20c059ef90" y="182.889529"/>
      </g>
     </g>
    </g>
    <g id="ytick_31">
     <g id="line2d_71">
      <g>
       <use style="fill:#262626;stroke:#262626;" x="93.7275" xlink:href="#m95f3fece49" y="174.642441"/>
      </g>
     </g>
     <g id="line2d_72">
      <g>
       <use style="fill:#262626;stroke:#262626;" x="874.9275" xlink:href="#m20c059ef90" y="174.642441"/>
      </g>
     </g>
    </g>
    <g id="ytick_32">
     <g id="line2d_73">
      <g>
       <use style="fill:#262626;stroke:#262626;" x="93.7275" xlink:href="#m95f3fece49" y="167.498488"/>
      </g>
     </g>
     <g id="line2d_74">
      <g>
       <use style="fill:#262626;stroke:#262626;" x="874.9275" xlink:href="#m20c059ef90" y="167.498488"/>
      </g>
     </g>
    </g>
    <g id="ytick_33">
     <g id="line2d_75">
      <g>
       <use style="fill:#262626;stroke:#262626;" x="93.7275" xlink:href="#m95f3fece49" y="161.197075"/>
      </g>
     </g>
     <g id="line2d_76">
      <g>
       <use style="fill:#262626;stroke:#262626;" x="874.9275" xlink:href="#m20c059ef90" y="161.197075"/>
      </g>
     </g>
    </g>
    <g id="ytick_34">
     <g id="line2d_77">
      <g>
       <use style="fill:#262626;stroke:#262626;" x="93.7275" xlink:href="#m95f3fece49" y="118.476773"/>
      </g>
     </g>
     <g id="line2d_78">
      <g>
       <use style="fill:#262626;stroke:#262626;" x="874.9275" xlink:href="#m20c059ef90" y="118.476773"/>
      </g>
     </g>
    </g>
    <g id="ytick_35">
     <g id="line2d_79">
      <g>
       <use style="fill:#262626;stroke:#262626;" x="93.7275" xlink:href="#m95f3fece49" y="96.784319"/>
      </g>
     </g>
     <g id="line2d_80">
      <g>
       <use style="fill:#262626;stroke:#262626;" x="874.9275" xlink:href="#m20c059ef90" y="96.784319"/>
      </g>
     </g>
    </g>
    <g id="ytick_36">
     <g id="line2d_81">
      <g>
       <use style="fill:#262626;stroke:#262626;" x="93.7275" xlink:href="#m95f3fece49" y="81.393277"/>
      </g>
     </g>
     <g id="line2d_82">
      <g>
       <use style="fill:#262626;stroke:#262626;" x="874.9275" xlink:href="#m20c059ef90" y="81.393277"/>
      </g>
     </g>
    </g>
    <g id="ytick_37">
     <g id="line2d_83">
      <g>
       <use style="fill:#262626;stroke:#262626;" x="93.7275" xlink:href="#m95f3fece49" y="69.455058"/>
      </g>
     </g>
     <g id="line2d_84">
      <g>
       <use style="fill:#262626;stroke:#262626;" x="874.9275" xlink:href="#m20c059ef90" y="69.455058"/>
      </g>
     </g>
    </g>
    <g id="ytick_38">
     <g id="line2d_85">
      <g>
       <use style="fill:#262626;stroke:#262626;" x="93.7275" xlink:href="#m95f3fece49" y="59.700823"/>
      </g>
     </g>
     <g id="line2d_86">
      <g>
       <use style="fill:#262626;stroke:#262626;" x="874.9275" xlink:href="#m20c059ef90" y="59.700823"/>
      </g>
     </g>
    </g>
    <g id="ytick_39">
     <g id="line2d_87">
      <g>
       <use style="fill:#262626;stroke:#262626;" x="93.7275" xlink:href="#m95f3fece49" y="51.453735"/>
      </g>
     </g>
     <g id="line2d_88">
      <g>
       <use style="fill:#262626;stroke:#262626;" x="874.9275" xlink:href="#m20c059ef90" y="51.453735"/>
      </g>
     </g>
    </g>
    <g id="ytick_40">
     <g id="line2d_89">
      <g>
       <use style="fill:#262626;stroke:#262626;" x="93.7275" xlink:href="#m95f3fece49" y="44.309782"/>
      </g>
     </g>
     <g id="line2d_90">
      <g>
       <use style="fill:#262626;stroke:#262626;" x="874.9275" xlink:href="#m20c059ef90" y="44.309782"/>
      </g>
     </g>
    </g>
    <g id="ytick_41">
     <g id="line2d_91">
      <g>
       <use style="fill:#262626;stroke:#262626;" x="93.7275" xlink:href="#m95f3fece49" y="38.008369"/>
      </g>
     </g>
     <g id="line2d_92">
      <g>
       <use style="fill:#262626;stroke:#262626;" x="874.9275" xlink:href="#m20c059ef90" y="38.008369"/>
      </g>
     </g>
    </g>
    <g id="text_12">
     <!-- Diffusion Constant [m2/s] -->
     <g style="fill:#262626;" transform="translate(25.43625 438.114375)rotate(-90)scale(0.24 -0.24)">
      <defs>
       <path d="M 1259 4147 
L 1259 519 
L 2022 519 
Q 2988 519 3436 956 
Q 3884 1394 3884 2338 
Q 3884 3275 3436 3711 
Q 2988 4147 2022 4147 
L 1259 4147 
z
M 628 4666 
L 1925 4666 
Q 3281 4666 3915 4102 
Q 4550 3538 4550 2338 
Q 4550 1131 3912 565 
Q 3275 0 1925 0 
L 628 0 
L 628 4666 
z
" id="DejaVuSans-44" transform="scale(0.015625)"/>
       <path d="M 603 3500 
L 1178 3500 
L 1178 0 
L 603 0 
L 603 3500 
z
M 603 4863 
L 1178 4863 
L 1178 4134 
L 603 4134 
L 603 4863 
z
" id="DejaVuSans-69" transform="scale(0.015625)"/>
       <path d="M 2375 4863 
L 2375 4384 
L 1825 4384 
Q 1516 4384 1395 4259 
Q 1275 4134 1275 3809 
L 1275 3500 
L 2222 3500 
L 2222 3053 
L 1275 3053 
L 1275 0 
L 697 0 
L 697 3053 
L 147 3053 
L 147 3500 
L 697 3500 
L 697 3744 
Q 697 4328 969 4595 
Q 1241 4863 1831 4863 
L 2375 4863 
z
" id="DejaVuSans-66" transform="scale(0.015625)"/>
       <path d="M 2834 3397 
L 2834 2853 
Q 2591 2978 2328 3040 
Q 2066 3103 1784 3103 
Q 1356 3103 1142 2972 
Q 928 2841 928 2578 
Q 928 2378 1081 2264 
Q 1234 2150 1697 2047 
L 1894 2003 
Q 2506 1872 2764 1633 
Q 3022 1394 3022 966 
Q 3022 478 2636 193 
Q 2250 -91 1575 -91 
Q 1294 -91 989 -36 
Q 684 19 347 128 
L 347 722 
Q 666 556 975 473 
Q 1284 391 1588 391 
Q 1994 391 2212 530 
Q 2431 669 2431 922 
Q 2431 1156 2273 1281 
Q 2116 1406 1581 1522 
L 1381 1569 
Q 847 1681 609 1914 
Q 372 2147 372 2553 
Q 372 3047 722 3315 
Q 1072 3584 1716 3584 
Q 2034 3584 2315 3537 
Q 2597 3491 2834 3397 
z
" id="DejaVuSans-73" transform="scale(0.015625)"/>
       <path d="M 1959 3097 
Q 1497 3097 1228 2736 
Q 959 2375 959 1747 
Q 959 1119 1226 758 
Q 1494 397 1959 397 
Q 2419 397 2687 759 
Q 2956 1122 2956 1747 
Q 2956 2369 2687 2733 
Q 2419 3097 1959 3097 
z
M 1959 3584 
Q 2709 3584 3137 3096 
Q 3566 2609 3566 1747 
Q 3566 888 3137 398 
Q 2709 -91 1959 -91 
Q 1206 -91 779 398 
Q 353 888 353 1747 
Q 353 2609 779 3096 
Q 1206 3584 1959 3584 
z
" id="DejaVuSans-6f" transform="scale(0.015625)"/>
       <path d="M 3513 2113 
L 3513 0 
L 2938 0 
L 2938 2094 
Q 2938 2591 2744 2837 
Q 2550 3084 2163 3084 
Q 1697 3084 1428 2787 
Q 1159 2491 1159 1978 
L 1159 0 
L 581 0 
L 581 3500 
L 1159 3500 
L 1159 2956 
Q 1366 3272 1645 3428 
Q 1925 3584 2291 3584 
Q 2894 3584 3203 3211 
Q 3513 2838 3513 2113 
z
" id="DejaVuSans-6e" transform="scale(0.015625)"/>
       <path d="M 4122 4306 
L 4122 3641 
Q 3803 3938 3442 4084 
Q 3081 4231 2675 4231 
Q 1875 4231 1450 3742 
Q 1025 3253 1025 2328 
Q 1025 1406 1450 917 
Q 1875 428 2675 428 
Q 3081 428 3442 575 
Q 3803 722 4122 1019 
L 4122 359 
Q 3791 134 3420 21 
Q 3050 -91 2638 -91 
Q 1578 -91 968 557 
Q 359 1206 359 2328 
Q 359 3453 968 4101 
Q 1578 4750 2638 4750 
Q 3056 4750 3426 4639 
Q 3797 4528 4122 4306 
z
" id="DejaVuSans-43" transform="scale(0.015625)"/>
       <path d="M 1625 4666 
L 2156 4666 
L 531 -594 
L 0 -594 
L 1625 4666 
z
" id="DejaVuSans-2f" transform="scale(0.015625)"/>
      </defs>
      <use xlink:href="#DejaVuSans-44"/>
      <use x="77.001953" xlink:href="#DejaVuSans-69"/>
      <use x="104.785156" xlink:href="#DejaVuSans-66"/>
      <use x="139.990234" xlink:href="#DejaVuSans-66"/>
      <use x="175.195312" xlink:href="#DejaVuSans-75"/>
      <use x="238.574219" xlink:href="#DejaVuSans-73"/>
      <use x="290.673828" xlink:href="#DejaVuSans-69"/>
      <use x="318.457031" xlink:href="#DejaVuSans-6f"/>
      <use x="379.638672" xlink:href="#DejaVuSans-6e"/>
      <use x="443.017578" xlink:href="#DejaVuSans-20"/>
      <use x="474.804688" xlink:href="#DejaVuSans-43"/>
      <use x="544.628906" xlink:href="#DejaVuSans-6f"/>
      <use x="605.810547" xlink:href="#DejaVuSans-6e"/>
      <use x="669.189453" xlink:href="#DejaVuSans-73"/>
      <use x="721.289062" xlink:href="#DejaVuSans-74"/>
      <use x="760.498047" xlink:href="#DejaVuSans-61"/>
      <use x="821.777344" xlink:href="#DejaVuSans-6e"/>
      <use x="885.15625" xlink:href="#DejaVuSans-74"/>
      <use x="924.365234" xlink:href="#DejaVuSans-20"/>
      <use x="956.152344" xlink:href="#DejaVuSans-5b"/>
      <use x="995.166016" xlink:href="#DejaVuSans-6d"/>
      <use x="1092.578125" xlink:href="#DejaVuSans-32"/>
      <use x="1156.201172" xlink:href="#DejaVuSans-2f"/>
      <use x="1189.892578" xlink:href="#DejaVuSans-73"/>
      <use x="1241.992188" xlink:href="#DejaVuSans-5d"/>
     </g>
    </g>
   </g>
   <g id="PathCollection_1">
    <path clip-path="url(#pe94b0d600d)" d="M 484.185464 39.503434 
C 486.060733 39.503434 487.859448 38.758381 489.185464 37.432366 
C 490.511479 36.10635 491.256531 34.307635 491.256531 32.432366 
C 491.256531 30.557097 490.511479 28.758381 489.185464 27.432366 
C 487.859448 26.10635 486.060733 25.361298 484.185464 25.361298 
C 482.310195 25.361298 480.511479 26.10635 479.185464 27.432366 
C 477.859448 28.758381 477.114396 30.557097 477.114396 32.432366 
C 477.114396 34.307635 477.859448 36.10635 479.185464 37.432366 
C 480.511479 38.758381 482.310195 39.503434 484.185464 39.503434 
z
" style="fill:#e5715e;"/>
    <path clip-path="url(#pe94b0d600d)" d="M 342.1491 39.50223 
C 344.024369 39.50223 345.823085 38.757177 347.1491 37.431162 
C 348.475116 36.105146 349.220168 34.306431 349.220168 32.431162 
C 349.220168 30.555893 348.475116 28.757177 347.1491 27.431162 
C 345.823085 26.105146 344.024369 25.360094 342.1491 25.360094 
C 340.273831 25.360094 338.475116 26.105146 337.1491 27.431162 
C 335.823085 28.757177 335.078032 30.555893 335.078032 32.431162 
C 335.078032 34.306431 335.823085 36.105146 337.1491 37.431162 
C 338.475116 38.757177 340.273831 39.50223 342.1491 39.50223 
z
" style="fill:#4b2362;"/>
    <path clip-path="url(#pe94b0d600d)" d="M 484.185464 39.509827 
C 486.060733 39.509827 487.859448 38.764775 489.185464 37.43876 
C 490.511479 36.112744 491.256531 34.314029 491.256531 32.43876 
C 491.256531 30.563491 490.511479 28.764775 489.185464 27.43876 
C 487.859448 26.112744 486.060733 25.367692 484.185464 25.367692 
C 482.310195 25.367692 480.511479 26.112744 479.185464 27.43876 
C 477.859448 28.764775 477.114396 30.563491 477.114396 32.43876 
C 477.114396 34.314029 477.859448 36.112744 479.185464 37.43876 
C 480.511479 38.764775 482.310195 39.509827 484.185464 39.509827 
z
" style="fill:#edb081;"/>
    <path clip-path="url(#pe94b0d600d)" d="M 271.130918 39.471068 
C 273.006187 39.471068 274.804903 38.726016 276.130918 37.4 
C 277.456934 36.073985 278.201986 34.275269 278.201986 32.4 
C 278.201986 30.524731 277.456934 28.726016 276.130918 27.4 
C 274.804903 26.073985 273.006187 25.328932 271.130918 25.328932 
C 269.255649 25.328932 267.456934 26.073985 266.130918 27.4 
C 264.804903 28.726016 264.05985 30.524731 264.05985 32.4 
C 264.05985 34.275269 264.804903 36.073985 266.130918 37.4 
C 267.456934 38.726016 269.255649 39.471068 271.130918 39.471068 
z
" style="fill:#863071;"/>
    <path clip-path="url(#pe94b0d600d)" d="M 484.185464 39.478065 
C 486.060733 39.478065 487.859448 38.733013 489.185464 37.406997 
C 490.511479 36.080982 491.256531 34.282266 491.256531 32.406997 
C 491.256531 30.531728 490.511479 28.733013 489.185464 27.406997 
C 487.859448 26.080982 486.060733 25.335929 484.185464 25.335929 
C 482.310195 25.335929 480.511479 26.080982 479.185464 27.406997 
C 477.859448 28.733013 477.114396 30.531728 477.114396 32.406997 
C 477.114396 34.282266 477.859448 36.080982 479.185464 37.406997 
C 480.511479 38.733013 482.310195 39.478065 484.185464 39.478065 
z
" style="fill:#863071;"/>
    <path clip-path="url(#pe94b0d600d)" d="M 342.1491 39.496559 
C 344.024369 39.496559 345.823085 38.751506 347.1491 37.425491 
C 348.475116 36.099475 349.220168 34.30076 349.220168 32.425491 
C 349.220168 30.550222 348.475116 28.751506 347.1491 27.425491 
C 345.823085 26.099475 344.024369 25.354423 342.1491 25.354423 
C 340.273831 25.354423 338.475116 26.099475 337.1491 27.425491 
C 335.823085 28.751506 335.078032 30.550222 335.078032 32.425491 
C 335.078032 34.30076 335.823085 36.099475 337.1491 37.425491 
C 338.475116 38.751506 340.273831 39.496559 342.1491 39.496559 
z
" style="fill:#863071;"/>
    <path clip-path="url(#pe94b0d600d)" d="M 125.701057 543.471068 
L 129.236591 539.935534 
L 132.772125 543.471068 
L 136.307659 539.935534 
L 132.772125 536.4 
L 136.307659 532.864466 
L 132.772125 529.328932 
L 129.236591 532.864466 
L 125.701057 529.328932 
L 122.165523 532.864466 
L 125.701057 536.4 
L 122.165523 539.935534 
z
" style="fill:#eca57a;"/>
    <path clip-path="url(#pe94b0d600d)" d="M 125.701057 525.187421 
L 129.236591 521.651887 
L 132.772125 525.187421 
L 136.307659 521.651887 
L 132.772125 518.116353 
L 136.307659 514.580819 
L 132.772125 511.045285 
L 129.236591 514.580819 
L 125.701057 511.045285 
L 122.165523 514.580819 
L 125.701057 518.116353 
L 122.165523 521.651887 
z
" style="fill:#e2665c;"/>
    <path clip-path="url(#pe94b0d600d)" d="M 125.701057 511.95104 
L 129.236591 508.415506 
L 132.772125 511.95104 
L 136.307659 508.415506 
L 132.772125 504.879972 
L 136.307659 501.344438 
L 132.772125 497.808904 
L 129.236591 501.344438 
L 125.701057 497.808904 
L 122.165523 501.344438 
L 125.701057 504.879972 
L 122.165523 508.415506 
z
" style="fill:#ba3e6a;"/>
    <path clip-path="url(#pe94b0d600d)" d="M 125.701057 504.761302 
L 129.236591 501.225768 
L 132.772125 504.761302 
L 136.307659 501.225768 
L 132.772125 497.690234 
L 136.307659 494.1547 
L 132.772125 490.619166 
L 129.236591 494.1547 
L 125.701057 490.619166 
L 122.165523 494.1547 
L 125.701057 497.690234 
L 122.165523 501.225768 
z
" style="fill:#7c2e70;"/>
    <path clip-path="url(#pe94b0d600d)" d="M 480.791966 473.243468 
L 484.3275 469.707934 
L 487.863034 473.243468 
L 491.398568 469.707934 
L 487.863034 466.1724 
L 491.398568 462.636866 
L 487.863034 459.101333 
L 484.3275 462.636866 
L 480.791966 459.101333 
L 477.256432 462.636866 
L 480.791966 466.1724 
L 477.256432 469.707934 
z
" style="fill:#eca379;"/>
    <path clip-path="url(#pe94b0d600d)" d="M 480.791966 449.175413 
L 484.3275 445.639879 
L 487.863034 449.175413 
L 491.398568 445.639879 
L 487.863034 442.104345 
L 491.398568 438.568811 
L 487.863034 435.033277 
L 484.3275 438.568811 
L 480.791966 435.033277 
L 477.256432 438.568811 
L 480.791966 442.104345 
L 477.256432 445.639879 
z
" style="fill:#e2655c;"/>
    <path clip-path="url(#pe94b0d600d)" d="M 480.791966 452.688721 
L 484.3275 449.153187 
L 487.863034 452.688721 
L 491.398568 449.153187 
L 487.863034 445.617653 
L 491.398568 442.08212 
L 487.863034 438.546586 
L 484.3275 442.08212 
L 480.791966 438.546586 
L 477.256432 442.08212 
L 480.791966 445.617653 
L 477.256432 449.153187 
z
" style="fill:#b93e6a;"/>
    <path clip-path="url(#pe94b0d600d)" d="M 480.791966 442.672871 
L 484.3275 439.137337 
L 487.863034 442.672871 
L 491.398568 439.137337 
L 487.863034 435.601803 
L 491.398568 432.066269 
L 487.863034 428.530735 
L 484.3275 432.066269 
L 480.791966 428.530735 
L 477.256432 432.066269 
L 480.791966 435.601803 
L 477.256432 439.137337 
z
" style="fill:#7c2e70;"/>
    <path clip-path="url(#pe94b0d600d)" d="M 835.882875 413.237575 
L 839.418409 409.702041 
L 842.953943 413.237575 
L 846.489477 409.702041 
L 842.953943 406.166507 
L 846.489477 402.630973 
L 842.953943 399.095439 
L 839.418409 402.630973 
L 835.882875 399.095439 
L 832.347341 402.630973 
L 835.882875 406.166507 
L 832.347341 409.702041 
z
" style="fill:#eca077;"/>
    <path clip-path="url(#pe94b0d600d)" d="M 835.882875 406.398467 
L 839.418409 402.862933 
L 842.953943 406.398467 
L 846.489477 402.862933 
L 842.953943 399.327399 
L 846.489477 395.791865 
L 842.953943 392.256331 
L 839.418409 395.791865 
L 835.882875 392.256331 
L 832.347341 395.791865 
L 835.882875 399.327399 
L 832.347341 402.862933 
z
" style="fill:#e0615c;"/>
    <path clip-path="url(#pe94b0d600d)" d="M 835.882875 409.008749 
L 839.418409 405.473215 
L 842.953943 409.008749 
L 846.489477 405.473215 
L 842.953943 401.937682 
L 846.489477 398.402148 
L 842.953943 394.866614 
L 839.418409 398.402148 
L 835.882875 394.866614 
L 832.347341 398.402148 
L 835.882875 401.937682 
L 832.347341 405.473215 
z
" style="fill:#b63d6b;"/>
    <path clip-path="url(#pe94b0d600d)" d="M 835.882875 409.546444 
L 839.418409 406.01091 
L 842.953943 409.546444 
L 846.489477 406.01091 
L 842.953943 402.475376 
L 846.489477 398.939842 
L 842.953943 395.404308 
L 839.418409 398.939842 
L 835.882875 395.404308 
L 832.347341 398.939842 
L 835.882875 402.475376 
L 832.347341 406.01091 
z
" style="fill:#792e6f;"/>
    <path clip-path="url(#pe94b0d600d)" d="M 620.298591 178.023447 
L 620.298591 188.023447 
L 630.298591 188.023447 
L 630.298591 178.023447 
z
" style="fill:#943470;"/>
    <path clip-path="url(#pe94b0d600d)" d="M 691.316773 177.667075 
L 691.316773 187.667075 
L 701.316773 187.667075 
L 701.316773 177.667075 
z
" style="fill:#943470;"/>
    <path clip-path="url(#pe94b0d600d)" d="M 762.334955 168.612977 
L 762.334955 178.612977 
L 772.334955 178.612977 
L 772.334955 168.612977 
z
" style="fill:#943470;"/>
    <path clip-path="url(#pe94b0d600d)" d="M 620.298591 167.706047 
L 620.298591 177.706047 
L 630.298591 177.706047 
L 630.298591 167.706047 
z
" style="fill:#762d6f;"/>
    <path clip-path="url(#pe94b0d600d)" d="M 691.316773 161.406272 
L 691.316773 171.406272 
L 701.316773 171.406272 
L 701.316773 161.406272 
z
" style="fill:#762d6f;"/>
    <path clip-path="url(#pe94b0d600d)" d="M 762.334955 154.864418 
L 762.334955 164.864418 
L 772.334955 164.864418 
L 772.334955 154.864418 
z
" style="fill:#762d6f;"/>
    <path clip-path="url(#pe94b0d600d)" d="M 620.298591 154.350849 
L 620.298591 164.350849 
L 630.298591 164.350849 
L 630.298591 154.350849 
z
" style="fill:#582766;"/>
    <path clip-path="url(#pe94b0d600d)" d="M 691.316773 149.390791 
L 691.316773 159.390791 
L 701.316773 159.390791 
L 701.316773 149.390791 
z
" style="fill:#582766;"/>
    <path clip-path="url(#pe94b0d600d)" d="M 762.334955 145.529292 
L 762.334955 155.529292 
L 772.334955 155.529292 
L 772.334955 145.529292 
z
" style="fill:#582766;"/>
   </g>
   <g id="PathCollection_2"/>
   <g id="PathCollection_3"/>
   <g id="PathCollection_4"/>
   <g id="PathCollection_5"/>
   <g id="PathCollection_6"/>
   <g id="PathCollection_7"/>
   <g id="PathCollection_8"/>
   <g id="PathCollection_9"/>
   <g id="patch_3">
    <path d="M 93.7275 561.6 
L 93.7275 7.2 
" style="fill:none;stroke:#262626;stroke-linecap:square;stroke-linejoin:miter;stroke-width:1.25;"/>
   </g>
   <g id="patch_4">
    <path d="M 874.9275 561.6 
L 874.9275 7.2 
" style="fill:none;stroke:#262626;stroke-linecap:square;stroke-linejoin:miter;stroke-width:1.25;"/>
   </g>
   <g id="patch_5">
    <path d="M 93.7275 561.6 
L 874.9275 561.6 
" style="fill:none;stroke:#262626;stroke-linecap:square;stroke-linejoin:miter;stroke-width:1.25;"/>
   </g>
   <g id="patch_6">
    <path d="M 93.7275 7.2 
L 874.9275 7.2 
" style="fill:none;stroke:#262626;stroke-linecap:square;stroke-linejoin:miter;stroke-width:1.25;"/>
   </g>
   <g id="legend_1">
    <g id="patch_7">
     <path d="M 101.4275 179.395 
L 257.12 179.395 
Q 259.32 179.395 259.32 177.195 
L 259.32 14.9 
Q 259.32 12.7 257.12 12.7 
L 101.4275 12.7 
Q 99.2275 12.7 99.2275 14.9 
L 99.2275 177.195 
Q 99.2275 179.395 101.4275 179.395 
z
" style="fill:#ffffff;opacity:0.8;stroke:#cccccc;stroke-linejoin:miter;"/>
    </g>
    <g id="text_13">
     <!-- Average pressure (MPa) -->
     <g style="fill:#262626;" transform="translate(112.4275 26.218125)scale(0.12 -0.12)">
      <defs>
       <path d="M 2188 4044 
L 1331 1722 
L 3047 1722 
L 2188 4044 
z
M 1831 4666 
L 2547 4666 
L 4325 0 
L 3669 0 
L 3244 1197 
L 1141 1197 
L 716 0 
L 50 0 
L 1831 4666 
z
" id="DejaVuSans-41" transform="scale(0.015625)"/>
       <path d="M 191 3500 
L 800 3500 
L 1894 563 
L 2988 3500 
L 3597 3500 
L 2284 0 
L 1503 0 
L 191 3500 
z
" id="DejaVuSans-76" transform="scale(0.015625)"/>
       <path d="M 2906 1791 
Q 2906 2416 2648 2759 
Q 2391 3103 1925 3103 
Q 1463 3103 1205 2759 
Q 947 2416 947 1791 
Q 947 1169 1205 825 
Q 1463 481 1925 481 
Q 2391 481 2648 825 
Q 2906 1169 2906 1791 
z
M 3481 434 
Q 3481 -459 3084 -895 
Q 2688 -1331 1869 -1331 
Q 1566 -1331 1297 -1286 
Q 1028 -1241 775 -1147 
L 775 -588 
Q 1028 -725 1275 -790 
Q 1522 -856 1778 -856 
Q 2344 -856 2625 -561 
Q 2906 -266 2906 331 
L 2906 616 
Q 2728 306 2450 153 
Q 2172 0 1784 0 
Q 1141 0 747 490 
Q 353 981 353 1791 
Q 353 2603 747 3093 
Q 1141 3584 1784 3584 
Q 2172 3584 2450 3431 
Q 2728 3278 2906 2969 
L 2906 3500 
L 3481 3500 
L 3481 434 
z
" id="DejaVuSans-67" transform="scale(0.015625)"/>
       <path d="M 1984 4856 
Q 1566 4138 1362 3434 
Q 1159 2731 1159 2009 
Q 1159 1288 1364 580 
Q 1569 -128 1984 -844 
L 1484 -844 
Q 1016 -109 783 600 
Q 550 1309 550 2009 
Q 550 2706 781 3412 
Q 1013 4119 1484 4856 
L 1984 4856 
z
" id="DejaVuSans-28" transform="scale(0.015625)"/>
       <path d="M 628 4666 
L 1569 4666 
L 2759 1491 
L 3956 4666 
L 4897 4666 
L 4897 0 
L 4281 0 
L 4281 4097 
L 3078 897 
L 2444 897 
L 1241 4097 
L 1241 0 
L 628 0 
L 628 4666 
z
" id="DejaVuSans-4d" transform="scale(0.015625)"/>
       <path d="M 1259 4147 
L 1259 2394 
L 2053 2394 
Q 2494 2394 2734 2622 
Q 2975 2850 2975 3272 
Q 2975 3691 2734 3919 
Q 2494 4147 2053 4147 
L 1259 4147 
z
M 628 4666 
L 2053 4666 
Q 2838 4666 3239 4311 
Q 3641 3956 3641 3272 
Q 3641 2581 3239 2228 
Q 2838 1875 2053 1875 
L 1259 1875 
L 1259 0 
L 628 0 
L 628 4666 
z
" id="DejaVuSans-50" transform="scale(0.015625)"/>
       <path d="M 513 4856 
L 1013 4856 
Q 1481 4119 1714 3412 
Q 1947 2706 1947 2009 
Q 1947 1309 1714 600 
Q 1481 -109 1013 -844 
L 513 -844 
Q 928 -128 1133 580 
Q 1338 1288 1338 2009 
Q 1338 2731 1133 3434 
Q 928 4138 513 4856 
z
" id="DejaVuSans-29" transform="scale(0.015625)"/>
      </defs>
      <use xlink:href="#DejaVuSans-41"/>
      <use x="62.533203" xlink:href="#DejaVuSans-76"/>
      <use x="121.712891" xlink:href="#DejaVuSans-65"/>
      <use x="183.236328" xlink:href="#DejaVuSans-72"/>
      <use x="224.349609" xlink:href="#DejaVuSans-61"/>
      <use x="285.628906" xlink:href="#DejaVuSans-67"/>
      <use x="349.105469" xlink:href="#DejaVuSans-65"/>
      <use x="410.628906" xlink:href="#DejaVuSans-20"/>
      <use x="442.416016" xlink:href="#DejaVuSans-70"/>
      <use x="505.892578" xlink:href="#DejaVuSans-72"/>
      <use x="544.755859" xlink:href="#DejaVuSans-65"/>
      <use x="606.279297" xlink:href="#DejaVuSans-73"/>
      <use x="658.378906" xlink:href="#DejaVuSans-73"/>
      <use x="710.478516" xlink:href="#DejaVuSans-75"/>
      <use x="773.857422" xlink:href="#DejaVuSans-72"/>
      <use x="812.720703" xlink:href="#DejaVuSans-65"/>
      <use x="874.244141" xlink:href="#DejaVuSans-20"/>
      <use x="906.03125" xlink:href="#DejaVuSans-28"/>
      <use x="945.044922" xlink:href="#DejaVuSans-4d"/>
      <use x="1031.324219" xlink:href="#DejaVuSans-50"/>
      <use x="1087.126953" xlink:href="#DejaVuSans-61"/>
      <use x="1148.40625" xlink:href="#DejaVuSans-29"/>
     </g>
    </g>
    <g id="PathCollection_10">
     <defs>
      <path d="M 0 3 
C 0.795609 3 1.55874 2.683901 2.12132 2.12132 
C 2.683901 1.55874 3 0.795609 3 0 
C 3 -0.795609 2.683901 -1.55874 2.12132 -2.12132 
C 1.55874 -2.683901 0.795609 -3 0 -3 
C -0.795609 -3 -1.55874 -2.683901 -2.12132 -2.12132 
C -2.683901 -1.55874 -3 -0.795609 -3 0 
C -3 0.795609 -2.683901 1.55874 -2.12132 2.12132 
C -1.55874 2.683901 -0.795609 3 0 3 
z
" id="mf36570f036" style="stroke:#ea916e;"/>
     </defs>
     <g>
      <use style="fill:#ea916e;stroke:#ea916e;" x="114.6275" xlink:href="#mf36570f036" y="39.684531"/>
     </g>
    </g>
    <g id="text_14">
     <!-- 3.0 -->
     <g style="fill:#262626;" transform="translate(134.4275 42.572031)scale(0.11 -0.11)">
      <defs>
       <path d="M 684 794 
L 1344 794 
L 1344 0 
L 684 0 
L 684 794 
z
" id="DejaVuSans-2e" transform="scale(0.015625)"/>
      </defs>
      <use xlink:href="#DejaVuSans-33"/>
      <use x="63.623047" xlink:href="#DejaVuSans-2e"/>
      <use x="95.410156" xlink:href="#DejaVuSans-30"/>
     </g>
    </g>
    <g id="PathCollection_11">
     <defs>
      <path d="M 0 3 
C 0.795609 3 1.55874 2.683901 2.12132 2.12132 
C 2.683901 1.55874 3 0.795609 3 0 
C 3 -0.795609 2.683901 -1.55874 2.12132 -2.12132 
C 1.55874 -2.683901 0.795609 -3 0 -3 
C -0.795609 -3 -1.55874 -2.683901 -2.12132 -2.12132 
C -2.683901 -1.55874 -3 -0.795609 -3 0 
C -3 0.795609 -2.683901 1.55874 -2.12132 2.12132 
C -1.55874 2.683901 -0.795609 3 0 3 
z
" id="md843c426c1" style="stroke:#e0615c;"/>
     </defs>
     <g>
      <use style="fill:#e0615c;stroke:#e0615c;" x="114.6275" xlink:href="#md843c426c1" y="55.830469"/>
     </g>
    </g>
    <g id="text_15">
     <!-- 4.5 -->
     <g style="fill:#262626;" transform="translate(134.4275 58.717969)scale(0.11 -0.11)">
      <defs>
       <path d="M 691 4666 
L 3169 4666 
L 3169 4134 
L 1269 4134 
L 1269 2991 
Q 1406 3038 1543 3061 
Q 1681 3084 1819 3084 
Q 2600 3084 3056 2656 
Q 3513 2228 3513 1497 
Q 3513 744 3044 326 
Q 2575 -91 1722 -91 
Q 1428 -91 1123 -41 
Q 819 9 494 109 
L 494 744 
Q 775 591 1075 516 
Q 1375 441 1709 441 
Q 2250 441 2565 725 
Q 2881 1009 2881 1497 
Q 2881 1984 2565 2268 
Q 2250 2553 1709 2553 
Q 1456 2553 1204 2497 
Q 953 2441 691 2322 
L 691 4666 
z
" id="DejaVuSans-35" transform="scale(0.015625)"/>
      </defs>
      <use xlink:href="#DejaVuSans-34"/>
      <use x="63.623047" xlink:href="#DejaVuSans-2e"/>
      <use x="95.410156" xlink:href="#DejaVuSans-35"/>
     </g>
    </g>
    <g id="PathCollection_12">
     <defs>
      <path d="M 0 3 
C 0.795609 3 1.55874 2.683901 2.12132 2.12132 
C 2.683901 1.55874 3 0.795609 3 0 
C 3 -0.795609 2.683901 -1.55874 2.12132 -2.12132 
C 1.55874 -2.683901 0.795609 -3 0 -3 
C -0.795609 -3 -1.55874 -2.683901 -2.12132 -2.12132 
C -2.683901 -1.55874 -3 -0.795609 -3 0 
C -3 0.795609 -2.683901 1.55874 -2.12132 2.12132 
C -1.55874 2.683901 -0.795609 3 0 3 
z
" id="m927f81e3ab" style="stroke:#c14168;"/>
     </defs>
     <g>
      <use style="fill:#c14168;stroke:#c14168;" x="114.6275" xlink:href="#m927f81e3ab" y="71.976406"/>
     </g>
    </g>
    <g id="text_16">
     <!-- 6.0 -->
     <g style="fill:#262626;" transform="translate(134.4275 74.863906)scale(0.11 -0.11)">
      <use xlink:href="#DejaVuSans-36"/>
      <use x="63.623047" xlink:href="#DejaVuSans-2e"/>
      <use x="95.410156" xlink:href="#DejaVuSans-30"/>
     </g>
    </g>
    <g id="PathCollection_13">
     <defs>
      <path d="M 0 3 
C 0.795609 3 1.55874 2.683901 2.12132 2.12132 
C 2.683901 1.55874 3 0.795609 3 0 
C 3 -0.795609 2.683901 -1.55874 2.12132 -2.12132 
C 1.55874 -2.683901 0.795609 -3 0 -3 
C -0.795609 -3 -1.55874 -2.683901 -2.12132 -2.12132 
C -2.683901 -1.55874 -3 -0.795609 -3 0 
C -3 0.795609 -2.683901 1.55874 -2.12132 2.12132 
C -1.55874 2.683901 -0.795609 3 0 3 
z
" id="m0b345946b3" style="stroke:#943470;"/>
     </defs>
     <g>
      <use style="fill:#943470;stroke:#943470;" x="114.6275" xlink:href="#m0b345946b3" y="88.122344"/>
     </g>
    </g>
    <g id="text_17">
     <!-- 7.5 -->
     <g style="fill:#262626;" transform="translate(134.4275 91.009844)scale(0.11 -0.11)">
      <use xlink:href="#DejaVuSans-37"/>
      <use x="63.623047" xlink:href="#DejaVuSans-2e"/>
      <use x="95.410156" xlink:href="#DejaVuSans-35"/>
     </g>
    </g>
    <g id="PathCollection_14">
     <defs>
      <path d="M 0 3 
C 0.795609 3 1.55874 2.683901 2.12132 2.12132 
C 2.683901 1.55874 3 0.795609 3 0 
C 3 -0.795609 2.683901 -1.55874 2.12132 -2.12132 
C 1.55874 -2.683901 0.795609 -3 0 -3 
C -0.795609 -3 -1.55874 -2.683901 -2.12132 -2.12132 
C -2.683901 -1.55874 -3 -0.795609 -3 0 
C -3 0.795609 -2.683901 1.55874 -2.12132 2.12132 
C -1.55874 2.683901 -0.795609 3 0 3 
z
" id="m90f11a5597" style="stroke:#672a6b;"/>
     </defs>
     <g>
      <use style="fill:#672a6b;stroke:#672a6b;" x="114.6275" xlink:href="#m90f11a5597" y="104.268281"/>
     </g>
    </g>
    <g id="text_18">
     <!-- 9.0 -->
     <g style="fill:#262626;" transform="translate(134.4275 107.155781)scale(0.11 -0.11)">
      <use xlink:href="#DejaVuSans-39"/>
      <use x="63.623047" xlink:href="#DejaVuSans-2e"/>
      <use x="95.410156" xlink:href="#DejaVuSans-30"/>
     </g>
    </g>
    <g id="text_19">
     <!-- From -->
     <g style="fill:#262626;" transform="translate(112.4275 124.061563)scale(0.12 -0.12)">
      <defs>
       <path d="M 628 4666 
L 3309 4666 
L 3309 4134 
L 1259 4134 
L 1259 2759 
L 3109 2759 
L 3109 2228 
L 1259 2228 
L 1259 0 
L 628 0 
L 628 4666 
z
" id="DejaVuSans-46" transform="scale(0.015625)"/>
      </defs>
      <use xlink:href="#DejaVuSans-46"/>
      <use x="50.269531" xlink:href="#DejaVuSans-72"/>
      <use x="89.132812" xlink:href="#DejaVuSans-6f"/>
      <use x="150.314453" xlink:href="#DejaVuSans-6d"/>
     </g>
    </g>
    <g id="PathCollection_15">
     <defs>
      <path d="M 0 3 
C 0.795609 3 1.55874 2.683901 2.12132 2.12132 
C 2.683901 1.55874 3 0.795609 3 0 
C 3 -0.795609 2.683901 -1.55874 2.12132 -2.12132 
C 1.55874 -2.683901 0.795609 -3 0 -3 
C -0.795609 -3 -1.55874 -2.683901 -2.12132 -2.12132 
C -2.683901 -1.55874 -3 -0.795609 -3 0 
C -3 0.795609 -2.683901 1.55874 -2.12132 2.12132 
C -1.55874 2.683901 -0.795609 3 0 3 
z
" id="madff9a3934" style="stroke:#333333;"/>
     </defs>
     <g>
      <use style="fill:#333333;stroke:#333333;" x="114.6275" xlink:href="#madff9a3934" y="137.527969"/>
     </g>
    </g>
    <g id="text_20">
     <!-- ML Calculations -->
     <g style="fill:#262626;" transform="translate(134.4275 140.415469)scale(0.11 -0.11)">
      <defs>
       <path d="M 628 4666 
L 1259 4666 
L 1259 531 
L 3531 531 
L 3531 0 
L 628 0 
L 628 4666 
z
" id="DejaVuSans-4c" transform="scale(0.015625)"/>
       <path d="M 603 4863 
L 1178 4863 
L 1178 0 
L 603 0 
L 603 4863 
z
" id="DejaVuSans-6c" transform="scale(0.015625)"/>
       <path d="M 3122 3366 
L 3122 2828 
Q 2878 2963 2633 3030 
Q 2388 3097 2138 3097 
Q 1578 3097 1268 2742 
Q 959 2388 959 1747 
Q 959 1106 1268 751 
Q 1578 397 2138 397 
Q 2388 397 2633 464 
Q 2878 531 3122 666 
L 3122 134 
Q 2881 22 2623 -34 
Q 2366 -91 2075 -91 
Q 1284 -91 818 406 
Q 353 903 353 1747 
Q 353 2603 823 3093 
Q 1294 3584 2113 3584 
Q 2378 3584 2631 3529 
Q 2884 3475 3122 3366 
z
" id="DejaVuSans-63" transform="scale(0.015625)"/>
      </defs>
      <use xlink:href="#DejaVuSans-4d"/>
      <use x="86.279297" xlink:href="#DejaVuSans-4c"/>
      <use x="141.992188" xlink:href="#DejaVuSans-20"/>
      <use x="173.779297" xlink:href="#DejaVuSans-43"/>
      <use x="243.603516" xlink:href="#DejaVuSans-61"/>
      <use x="304.882812" xlink:href="#DejaVuSans-6c"/>
      <use x="332.666016" xlink:href="#DejaVuSans-63"/>
      <use x="387.646484" xlink:href="#DejaVuSans-75"/>
      <use x="451.025391" xlink:href="#DejaVuSans-6c"/>
      <use x="478.808594" xlink:href="#DejaVuSans-61"/>
      <use x="540.087891" xlink:href="#DejaVuSans-74"/>
      <use x="579.296875" xlink:href="#DejaVuSans-69"/>
      <use x="607.080078" xlink:href="#DejaVuSans-6f"/>
      <use x="668.261719" xlink:href="#DejaVuSans-6e"/>
      <use x="731.640625" xlink:href="#DejaVuSans-73"/>
     </g>
    </g>
    <g id="PathCollection_16">
     <defs>
      <path d="M -1.5 3 
L 0 1.5 
L 1.5 3 
L 3 1.5 
L 1.5 0 
L 3 -1.5 
L 1.5 -3 
L 0 -1.5 
L -1.5 -3 
L -3 -1.5 
L -1.5 0 
L -3 1.5 
z
" id="m6a492311ee" style="stroke:#333333;"/>
     </defs>
     <g>
      <use style="fill:#333333;stroke:#333333;" x="114.6275" xlink:href="#m6a492311ee" y="153.673906"/>
     </g>
    </g>
    <g id="text_21">
     <!-- Sato -->
     <g style="fill:#262626;" transform="translate(134.4275 156.561406)scale(0.11 -0.11)">
      <defs>
       <path d="M 3425 4513 
L 3425 3897 
Q 3066 4069 2747 4153 
Q 2428 4238 2131 4238 
Q 1616 4238 1336 4038 
Q 1056 3838 1056 3469 
Q 1056 3159 1242 3001 
Q 1428 2844 1947 2747 
L 2328 2669 
Q 3034 2534 3370 2195 
Q 3706 1856 3706 1288 
Q 3706 609 3251 259 
Q 2797 -91 1919 -91 
Q 1588 -91 1214 -16 
Q 841 59 441 206 
L 441 856 
Q 825 641 1194 531 
Q 1563 422 1919 422 
Q 2459 422 2753 634 
Q 3047 847 3047 1241 
Q 3047 1584 2836 1778 
Q 2625 1972 2144 2069 
L 1759 2144 
Q 1053 2284 737 2584 
Q 422 2884 422 3419 
Q 422 4038 858 4394 
Q 1294 4750 2059 4750 
Q 2388 4750 2728 4690 
Q 3069 4631 3425 4513 
z
" id="DejaVuSans-53" transform="scale(0.015625)"/>
      </defs>
      <use xlink:href="#DejaVuSans-53"/>
      <use x="63.476562" xlink:href="#DejaVuSans-61"/>
      <use x="124.755859" xlink:href="#DejaVuSans-74"/>
      <use x="163.964844" xlink:href="#DejaVuSans-6f"/>
     </g>
    </g>
    <g id="PathCollection_17">
     <defs>
      <path d="M -2.12132 -2.12132 
L -2.12132 2.12132 
L 2.12132 2.12132 
L 2.12132 -2.12132 
z
" id="mcde30bbbbb" style="stroke:#333333;"/>
     </defs>
     <g>
      <use style="fill:#333333;stroke:#333333;" x="114.6275" xlink:href="#mcde30bbbbb" y="169.819844"/>
     </g>
    </g>
    <g id="text_22">
     <!-- Wang -->
     <g style="fill:#262626;" transform="translate(134.4275 172.707344)scale(0.11 -0.11)">
      <defs>
       <path d="M 213 4666 
L 850 4666 
L 1831 722 
L 2809 4666 
L 3519 4666 
L 4500 722 
L 5478 4666 
L 6119 4666 
L 4947 0 
L 4153 0 
L 3169 4050 
L 2175 0 
L 1381 0 
L 213 4666 
z
" id="DejaVuSans-57" transform="scale(0.015625)"/>
      </defs>
      <use xlink:href="#DejaVuSans-57"/>
      <use x="92.501953" xlink:href="#DejaVuSans-61"/>
      <use x="153.78125" xlink:href="#DejaVuSans-6e"/>
      <use x="217.160156" xlink:href="#DejaVuSans-67"/>
     </g>
    </g>
   </g>
  </g>
 </g>
 <defs>
  <clipPath id="pe94b0d600d">
   <rect height="554.4" width="781.2" x="93.7275" y="7.2"/>
  </clipPath>
 </defs>
</svg>
